<?xml version="1.0"?><svg width="640" height="480" xmlns="http://www.w3.org/2000/svg">
 <title>Lime Slice</title>

 <g>
  <title>Layer 1</title>
  <g id="svg_1">
   <path d="m295.803284,105.364288c-52.127991,6.844604 -92.709991,43.070602 -114.027954,89.575592c-3.116989,6.799011 -7.543991,13.678009 -9.287994,21c-6.169006,25.899002 -3.109985,51.061005 5.149002,76c4.172012,12.598999 8.64595,25.294006 16.764969,36c18.66098,24.606995 41.772003,39.984009 70.401978,50.218018c18.75,6.701996 39.130005,8.935974 59.000122,6.496002c13.437988,-1.651001 28.411011,-3.008026 41,-8.167999c49.573914,-20.318024 82.045898,-67.837006 85.909912,-120.546021c5.793976,-79.041992 -74.986908,-161.069489 -154.910034,-150.575592z" id="path643" fill="#007f3f"/>
   <path d="m299.713287,110.429077c-20.773987,2.925812 -42.546997,10.0028 -59.910004,22.243805c-29.266983,20.633011 -51.467987,48.199005 -60.442947,83.266998c-13.132996,51.319 10.617966,110.895996 54.446976,139.931c27.698975,18.348999 64.230988,25.858002 96.996094,21.88501c73.670898,-8.934998 121.876892,-80.31601 111.688904,-151.81601c-8.68399,-60.947998 -79.090912,-124.478882 -142.779022,-115.510803z" id="path705" fill="#5fbf00"/>
   <path d="m307.803284,133.367889c-21.153992,2.526001 -39.561981,5.209991 -58,17.216003c-45.006989,29.307999 -65.637985,89.207001 -44.125977,139.186005c10.354004,24.054993 29.071991,43.596985 51.41098,57.049988c22.689026,13.664001 51.391022,13.837006 76.715118,10.953003c16.381989,-1.86499 33.768005,-13.285004 46.130005,-23.561005c23.511902,-19.544983 39.654907,-45.535004 42.585907,-76.272003c5.858002,-61.427994 -48.601898,-132.466003 -114.716034,-124.571991z" id="path1028" fill="#d4ffaa"/>
   <path opacity="0.6" d="m315.803406,139.684891c-9.720093,0.205002 -23.966095,-1.470001 -29.951111,8.360001c-2.82901,4.644989 0.373993,9.33699 1.651001,13.894989c3.291016,11.746002 5.653992,23.512009 10.052002,35c3.184998,8.322006 4.558014,16.889008 8.612,25c1.046997,2.095001 2.895996,6.792999 5.748993,6.792999c5.828094,0 12.351105,-21.016998 14.500122,-25.792999c5.496979,-12.219986 9.241974,-25.250992 13.005981,-38c1.447998,-4.903992 4.637024,-10.694992 2.484009,-15.891998c-3.256012,-7.858002 -18.813019,-9.515991 -26.102997,-9.362991z" id="path1177" fill="#5fbf00"/>
   <path opacity="0.6" d="m265.802307,157.956894c-12.806,-0.798004 -29.127014,18.365997 -34.71402,27.982986c-2.078979,3.581009 -7.024994,9.533005 -4.922974,13.819c2.440979,4.979004 10.096985,8.539001 14.63797,11.320007c14.240021,8.720001 38.740021,23.216003 55.955017,22.798004c8.091003,-0.197006 2.576996,-14.039001 0.872009,-17.937012c-6.275024,-14.347 -13.64502,-28.628998 -19.541016,-43c-2.381989,-5.806 -4.354004,-14.488998 -12.286987,-14.982986z" id="path1459" fill="#5fbf00"/>
   <path opacity="0.6" d="m360.104401,161.927887c-5.014008,2.688004 -7.294983,10.326996 -9.971985,15.011993c-7.199005,12.600006 -14.780029,24.845001 -20.833008,38c-2.137024,4.645004 -7.455017,12.404007 -5.108002,17.851013c2.085999,4.840988 10.15799,1.524994 13.612,0.079987c11.472015,-4.800995 21.161011,-12.241989 32,-18.139999c8.381989,-4.560989 20.148895,-10.327988 23.851898,-19.791c5.42099,-13.853989 -19.154907,-40.728989 -33.550903,-33.011993z" id="path1532" fill="#5fbf00"/>
   <path opacity="0.6" d="m400.803314,217.226883c-3.352997,-0.078003 -6.666016,2.770004 -10,3.384003c-15.304901,2.819 -30.610901,9.781998 -44.999908,15.940002c-3.759003,1.608994 -14.552002,5.033005 -14.378998,10.352997c0.173981,5.335007 11.570984,7.962006 15.378998,9.626022c16.515991,7.218994 34.726013,16.618988 53.07489,16.340973c15.326019,-0.230988 15.880005,-34.651993 12.335999,-44.931c-1.398987,-4.057999 -6.723999,-10.603989 -11.41098,-10.712997z" id="path2530" fill="#5fbf00"/>
   <path opacity="0.6" d="m219.818298,218.512894c-9.355011,2.718994 -10.731995,15.406998 -10.875,23.426987c-0.31601,17.695007 0.639008,36.686005 23.859985,30.460999c14.673004,-3.932983 30.788025,-9.734985 44,-17.164993c3.764008,-2.117004 11.936005,-4.604004 13.029022,-9.423996c1.514008,-6.669998 -10.850006,-9.067001 -15.029022,-11.141006c-9.48999,-4.710999 -19.210999,-7.011002 -29,-10.718002c-7.54599,-2.856995 -17.60199,-7.875 -25.984985,-5.439987z" id="path2596" fill="#5fbf00"/>
   <path opacity="0.6" d="m292.799286,255.790894c-5.643982,0.713013 -10.985992,5.082001 -16,7.470001c-14.696991,7 -39.234985,16.513 -47.307983,31.718994c-7.929993,14.934998 14.36499,38.053009 30.221985,36.436005c6.360016,-0.649017 10.888,-10.559998 13.359009,-15.476013c7.610016,-15.141998 16.216003,-29.735992 23.636017,-45c2.302979,-4.737 5.393982,-16.322998 -3.909027,-15.148987z" id="path3408" fill="#5fbf00"/>
   <path opacity="0.6" d="m325.560394,259.968872c-5.391998,4.499023 5.733002,25.98703 8.134003,30.971008c5.125,10.636993 9.628021,21.419006 14.82901,32c2.100006,4.27301 3.694,10.194 9.319,10.812012c7.256989,0.79599 14.554993,-6.923004 19.675995,-11.179016c6.297913,-5.233002 23.363892,-22.321991 19.541901,-31.528992c-4.208984,-10.140991 -25.086884,-16.321991 -34.256897,-20.768005c-8.919006,-4.324982 -17.309998,-8.04599 -27,-10.000977c-2.845001,-0.574036 -7.649017,-2.471008 -10.243011,-0.30603z" id="path3493" fill="#5fbf00"/>
   <path opacity="0.6" d="m308.861298,266.075897c-8.380005,3.593994 -12.085999,24.140991 -14.781006,31.863983c-3.786987,10.852997 -16.078979,30.002014 -12.688995,41.907013c1.450012,5.089996 7.917999,6.59198 12.411987,7.712006c11.744019,2.927002 29.508118,4.958984 40.895111,-0.462006c7.178009,-3.417999 5.702026,-11.070007 4.039001,-17.161011c-4.304993,-15.768982 -10.063995,-33.06601 -16.759003,-47.996002c-2.09198,-4.664978 -5.196991,-19.260986 -13.117096,-15.863983z" id="path3689" fill="#5fbf00"/>
  </g>
 </g>
</svg>